STARTFONT 2.1
FONT -Bitstream-Terminal-Bold-R-Narrow--25-180-100-100-C-90-DEC-DECtech
SIZE 18 100 100
FONTBOUNDINGBOX 9 25 0 -5

STARTPROPERTIES 27
FOUNDRY "Bitstream"
FAMILY_NAME "Terminal"
WEIGHT_NAME "Bold"
SLANT "R"
SETWIDTH_NAME "Narrow"
ADD_STYLE_NAME ""
PIXEL_SIZE 25
POINT_SIZE 180
RESOLUTION_X 100
RESOLUTION_Y 100
SPACING "C"
AVERAGE_WIDTH 90
CHARSET_REGISTRY "DEC"
CHARSET_ENCODING "DECtech"
CAP_HEIGHT 15
COPYRIGHT "Copyright (c) 1991 Digital Equipment Corporation. All Rights Reserved."
_DEC_PRODUCTINFO "DECterm Fonts V2.2, 11-Nov-1991"
AVG_CAPITAL_WIDTH 90
AVG_LOWERCASE_WIDTH 90
FIGURE_WIDTH 9
FULL_NAME "Terminal Bold Narrow"
WEIGHT 10
X_HEIGHT -3
QUAD_WIDTH 9
DEFAULT_CHAR 159
FONT_DESCENT 5
FONT_ASCENT 20
ENDPROPERTIES

CHARS 182

STARTCHAR space
ENCODING 32
SWIDTH 360 0
DWIDTH 9 0
BBX 9 25 0 -5
BITMAP
0000
0000
0000
0000
0000
0000
0000
0000
0000
0000
0000
0000
0000
0000
0000
0000
0000
0000
0000
0000
0000
0000
0000
0000
0000
ENDCHAR

STARTCHAR exclam
ENCODING 33
SWIDTH 360 0
DWIDTH 9 0
BBX 9 25 0 -5
BITMAP
0000
0000
0000
0000
0000
1800
1800
1800
1800
1800
1800
1800
1800
1800
1800
0000
0800
1C00
1C00
0800
0000
0000
0000
0000
0000
ENDCHAR

STARTCHAR quotedbl
ENCODING 34
SWIDTH 360 0
DWIDTH 9 0
BBX 9 25 0 -5
BITMAP
0000
0000
0000
6600
6600
6600
6600
6600
6600
0000
0000
0000
0000
0000
0000
0000
0000
0000
0000
0000
0000
0000
0000
0000
0000
ENDCHAR

STARTCHAR numbersign
ENCODING 35
SWIDTH 360 0
DWIDTH 9 0
BBX 9 25 0 -5
BITMAP
0000
0000
0000
0000
0000
1200
1200
1200
1200
3F00
3F00
1200
1200
1200
1200
3F00
3F00
1200
1200
1200
1200
0000
0000
0000
0000
ENDCHAR

STARTCHAR dollar
ENCODING 36
SWIDTH 360 0
DWIDTH 9 0
BBX 9 25 0 -5
BITMAP
0000
0000
0000
0C00
0C00
0C00
3E00
7F00
6300
6000
6000
6000
7E00
3F00
0300
0300
6300
6300
7F00
3E00
0C00
0C00
0C00
0000
0000
ENDCHAR

STARTCHAR percent
ENCODING 37
SWIDTH 360 0
DWIDTH 9 0
BBX 9 25 0 -5
BITMAP
0000
0000
0000
0000
0000
7800
CC00
CC00
CC00
7900
0700
0C00
1800
7000
C000
9E00
3300
3300
3300
1E00
0000
0000
0000
0000
0000
ENDCHAR

STARTCHAR ampersand
ENCODING 38
SWIDTH 360 0
DWIDTH 9 0
BBX 9 25 0 -5
BITMAP
0000
0000
0000
0000
0000
1C00
7C00
6000
6000
6000
6000
3000
3000
7A00
CE00
CC00
CC00
CC00
FE00
7600
0000
0000
0000
0000
0000
ENDCHAR

STARTCHAR quoteright
ENCODING 39
SWIDTH 360 0
DWIDTH 9 0
BBX 9 25 0 -5
BITMAP
0000
0000
0000
0000
0E00
0C00
1800
1800
3000
0000
0000
0000
0000
0000
0000
0000
0000
0000
0000
0000
0000
0000
0000
0000
0000
ENDCHAR

STARTCHAR parenleft
ENCODING 40
SWIDTH 360 0
DWIDTH 9 0
BBX 9 25 0 -5
BITMAP
0000
0000
0000
0000
0600
0C00
1800
1800
3000
3000
3000
3000
3000
3000
3000
3000
3000
1800
1800
0C00
0C00
0600
0000
0000
0000
ENDCHAR

STARTCHAR parenright
ENCODING 41
SWIDTH 360 0
DWIDTH 9 0
BBX 9 25 0 -5
BITMAP
0000
0000
0000
0000
3000
1800
0C00
0C00
0600
0600
0600
0600
0600
0600
0600
0600
0600
0C00
0C00
1800
1800
3000
0000
0000
0000
ENDCHAR

STARTCHAR asterisk
ENCODING 42
SWIDTH 360 0
DWIDTH 9 0
BBX 9 25 0 -5
BITMAP
0000
0000
0000
0000
0000
0000
0000
0000
0800
6B00
6B00
3E00
1C00
1C00
3600
3600
0000
0000
0000
0000
0000
0000
0000
0000
0000
ENDCHAR

STARTCHAR plus
ENCODING 43
SWIDTH 360 0
DWIDTH 9 0
BBX 9 25 0 -5
BITMAP
0000
0000
0000
0000
0000
0000
0000
0000
0000
1800
1800
1800
7E00
7E00
1800
1800
1800
0000
0000
0000
0000
0000
0000
0000
0000
ENDCHAR

STARTCHAR comma
ENCODING 44
SWIDTH 360 0
DWIDTH 9 0
BBX 9 25 0 -5
BITMAP
0000
0000
0000
0000
0000
0000
0000
0000
0000
0000
0000
0000
0000
0000
0000
0000
0E00
0C00
1800
1800
3000
3000
0000
0000
0000
ENDCHAR

STARTCHAR minus
ENCODING 45
SWIDTH 360 0
DWIDTH 9 0
BBX 9 25 0 -5
BITMAP
0000
0000
0000
0000
0000
0000
0000
0000
0000
0000
0000
0000
7E00
7E00
0000
0000
0000
0000
0000
0000
0000
0000
0000
0000
0000
ENDCHAR

STARTCHAR period
ENCODING 46
SWIDTH 360 0
DWIDTH 9 0
BBX 9 25 0 -5
BITMAP
0000
0000
0000
0000
0000
0000
0000
0000
0000
0000
0000
0000
0000
0000
0000
0000
1000
3800
3800
1000
0000
0000
0000
0000
0000
ENDCHAR

STARTCHAR slash
ENCODING 47
SWIDTH 360 0
DWIDTH 9 0
BBX 9 25 0 -5
BITMAP
0000
0000
0000
0600
0600
0600
0600
0C00
0C00
0C00
1800
1800
1800
1800
3000
3000
3000
3000
6000
6000
6000
6000
0000
0000
0000
ENDCHAR

STARTCHAR zero
ENCODING 48
SWIDTH 360 0
DWIDTH 9 0
BBX 9 25 0 -5
BITMAP
0000
0000
0000
0000
0000
1C00
3E00
3600
6300
6300
6300
6300
6300
6300
6300
6300
6300
3600
3E00
1C00
0000
0000
0000
0000
0000
ENDCHAR

STARTCHAR one
ENCODING 49
SWIDTH 360 0
DWIDTH 9 0
BBX 9 25 0 -5
BITMAP
0000
0000
0000
0000
0000
1800
3800
7800
5800
1800
1800
1800
1800
1800
1800
1800
1800
1800
3C00
3C00
0000
0000
0000
0000
0000
ENDCHAR

STARTCHAR two
ENCODING 50
SWIDTH 360 0
DWIDTH 9 0
BBX 9 25 0 -5
BITMAP
0000
0000
0000
0000
0000
3E00
7F00
6300
0300
0300
0300
0600
0600
0C00
1800
1800
3000
3000
7F00
7F00
0000
0000
0000
0000
0000
ENDCHAR

STARTCHAR three
ENCODING 51
SWIDTH 360 0
DWIDTH 9 0
BBX 9 25 0 -5
BITMAP
0000
0000
0000
0000
0000
3E00
7F00
6300
0300
0300
0300
1E00
1E00
0300
0300
0300
0300
6300
7F00
3E00
0000
0000
0000
0000
0000
ENDCHAR

STARTCHAR four
ENCODING 52
SWIDTH 360 0
DWIDTH 9 0
BBX 9 25 0 -5
BITMAP
0000
0000
0000
0000
0000
0600
0E00
1E00
1600
3600
2600
6600
6600
7F00
7F00
0600
0600
0600
0600
0600
0000
0000
0000
0000
0000
ENDCHAR

STARTCHAR five
ENCODING 53
SWIDTH 360 0
DWIDTH 9 0
BBX 9 25 0 -5
BITMAP
0000
0000
0000
0000
0000
7F00
7F00
6000
6000
6000
6000
7E00
7F00
0300
0300
0300
6300
6300
7F00
3E00
0000
0000
0000
0000
0000
ENDCHAR

STARTCHAR six
ENCODING 54
SWIDTH 360 0
DWIDTH 9 0
BBX 9 25 0 -5
BITMAP
0000
0000
0000
0000
0000
0700
1F00
3800
3000
6000
7E00
7F00
6300
6300
6300
6300
6300
6300
7F00
3E00
0000
0000
0000
0000
0000
ENDCHAR

STARTCHAR seven
ENCODING 55
SWIDTH 360 0
DWIDTH 9 0
BBX 9 25 0 -5
BITMAP
0000
0000
0000
0000
0000
7F00
7F00
4300
0300
0300
0600
0600
0C00
0C00
0C00
1800
1800
1800
1800
1800
0000
0000
0000
0000
0000
ENDCHAR

STARTCHAR eight
ENCODING 56
SWIDTH 360 0
DWIDTH 9 0
BBX 9 25 0 -5
BITMAP
0000
0000
0000
0000
0000
3E00
7F00
6300
6300
6300
6300
3E00
7F00
6300
6300
6300
6300
6300
7F00
3E00
0000
0000
0000
0000
0000
ENDCHAR

STARTCHAR nine
ENCODING 57
SWIDTH 360 0
DWIDTH 9 0
BBX 9 25 0 -5
BITMAP
0000
0000
0000
0000
0000
3E00
7F00
6300
6300
6300
6300
6300
7F00
3F00
0300
0600
0600
0C00
7C00
7800
0000
0000
0000
0000
0000
ENDCHAR

STARTCHAR colon
ENCODING 58
SWIDTH 360 0
DWIDTH 9 0
BBX 9 25 0 -5
BITMAP
0000
0000
0000
0000
0000
0000
0000
0000
0000
0800
1C00
1C00
0800
0000
0000
0000
0800
1C00
1C00
0800
0000
0000
0000
0000
0000
ENDCHAR

STARTCHAR semicolon
ENCODING 59
SWIDTH 360 0
DWIDTH 9 0
BBX 9 25 0 -5
BITMAP
0000
0000
0000
0000
0000
0000
0000
0000
0000
0400
0E00
0E00
0400
0000
0000
0000
0E00
0C00
1800
1800
3000
3000
0000
0000
0000
ENDCHAR

STARTCHAR less
ENCODING 60
SWIDTH 360 0
DWIDTH 9 0
BBX 9 25 0 -5
BITMAP
0000
0000
0000
0000
0000
0000
0000
0000
0300
0700
0E00
1C00
3800
7000
3800
1C00
0E00
0700
0300
0000
0000
0000
0000
0000
0000
ENDCHAR

STARTCHAR equal
ENCODING 61
SWIDTH 360 0
DWIDTH 9 0
BBX 9 25 0 -5
BITMAP
0000
0000
0000
0000
0000
0000
0000
0000
0000
0000
7F00
7F00
0000
0000
7F00
7F00
0000
0000
0000
0000
0000
0000
0000
0000
0000
ENDCHAR

STARTCHAR greater
ENCODING 62
SWIDTH 360 0
DWIDTH 9 0
BBX 9 25 0 -5
BITMAP
0000
0000
0000
0000
0000
0000
0000
0000
6000
7000
3800
1C00
0E00
0700
0E00
1C00
3800
7000
6000
0000
0000
0000
0000
0000
0000
ENDCHAR

STARTCHAR question
ENCODING 63
SWIDTH 360 0
DWIDTH 9 0
BBX 9 25 0 -5
BITMAP
0000
0000
0000
0000
0000
3E00
7F00
6300
0300
0700
0E00
0C00
1800
1800
0000
0000
0800
1C00
1C00
0800
0000
0000
0000
0000
0000
ENDCHAR

STARTCHAR at
ENCODING 64
SWIDTH 360 0
DWIDTH 9 0
BBX 9 25 0 -5
BITMAP
0000
0000
0000
0000
1C00
3E00
7300
6100
6100
6700
6F00
6D00
6900
6900
6900
6D00
6F00
6700
6000
7000
3F00
1E00
0000
0000
0000
ENDCHAR

STARTCHAR A
ENCODING 65
SWIDTH 360 0
DWIDTH 9 0
BBX 9 25 0 -5
BITMAP
0000
0000
0000
0000
0000
1C00
3E00
3E00
6300
6300
6300
6300
6300
7F00
7F00
6300
6300
6300
6300
6300
0000
0000
0000
0000
0000
ENDCHAR

STARTCHAR B
ENCODING 66
SWIDTH 360 0
DWIDTH 9 0
BBX 9 25 0 -5
BITMAP
0000
0000
0000
0000
0000
7E00
7F00
6300
6300
6300
6300
7E00
7E00
6300
6300
6300
6300
6300
7F00
7E00
0000
0000
0000
0000
0000
ENDCHAR

STARTCHAR C
ENCODING 67
SWIDTH 360 0
DWIDTH 9 0
BBX 9 25 0 -5
BITMAP
0000
0000
0000
0000
0000
3B00
7F00
6300
6300
6000
6000
6000
6000
6000
6000
6000
6300
6300
7F00
3E00
0000
0000
0000
0000
0000
ENDCHAR

STARTCHAR D
ENCODING 68
SWIDTH 360 0
DWIDTH 9 0
BBX 9 25 0 -5
BITMAP
0000
0000
0000
0000
0000
7E00
7F00
6300
6300
6300
6300
6300
6300
6300
6300
6300
6300
6300
7F00
7E00
0000
0000
0000
0000
0000
ENDCHAR

STARTCHAR E
ENCODING 69
SWIDTH 360 0
DWIDTH 9 0
BBX 9 25 0 -5
BITMAP
0000
0000
0000
0000
0000
3F00
3F00
3000
3000
3000
3000
3F00
3F00
3000
3000
3000
3000
3000
3F00
3F00
0000
0000
0000
0000
0000
ENDCHAR

STARTCHAR F
ENCODING 70
SWIDTH 360 0
DWIDTH 9 0
BBX 9 25 0 -5
BITMAP
0000
0000
0000
0000
0000
3F80
3F80
3000
3000
3000
3000
3F00
3F00
3000
3000
3000
3000
3000
3000
3000
0000
0000
0000
0000
0000
ENDCHAR

STARTCHAR G
ENCODING 71
SWIDTH 360 0
DWIDTH 9 0
BBX 9 25 0 -5
BITMAP
0000
0000
0000
0000
0000
3D00
7F00
6300
6300
6000
6000
6000
6000
6700
6700
6300
6300
6300
7F00
3F00
0000
0000
0000
0000
0000
ENDCHAR

STARTCHAR H
ENCODING 72
SWIDTH 360 0
DWIDTH 9 0
BBX 9 25 0 -5
BITMAP
0000
0000
0000
0000
0000
6300
6300
6300
6300
6300
6300
7F00
7F00
6300
6300
6300
6300
6300
6300
6300
0000
0000
0000
0000
0000
ENDCHAR

STARTCHAR I
ENCODING 73
SWIDTH 360 0
DWIDTH 9 0
BBX 9 25 0 -5
BITMAP
0000
0000
0000
0000
0000
7E00
7E00
1800
1800
1800
1800
1800
1800
1800
1800
1800
1800
1800
7E00
7E00
0000
0000
0000
0000
0000
ENDCHAR

STARTCHAR J
ENCODING 74
SWIDTH 360 0
DWIDTH 9 0
BBX 9 25 0 -5
BITMAP
0000
0000
0000
0000
0000
1F00
1F00
0600
0600
0600
0600
0600
0600
0600
0600
6600
6600
6600
7E00
3C00
0000
0000
0000
0000
0000
ENDCHAR

STARTCHAR K
ENCODING 75
SWIDTH 360 0
DWIDTH 9 0
BBX 9 25 0 -5
BITMAP
0000
0000
0000
0000
0000
6300
6300
6600
6600
6600
6C00
6C00
7800
7C00
6C00
6600
6600
6300
6300
6300
0000
0000
0000
0000
0000
ENDCHAR

STARTCHAR L
ENCODING 76
SWIDTH 360 0
DWIDTH 9 0
BBX 9 25 0 -5
BITMAP
0000
0000
0000
0000
0000
3000
3000
3000
3000
3000
3000
3000
3000
3000
3000
3000
3000
3000
3F00
3F00
0000
0000
0000
0000
0000
ENDCHAR

STARTCHAR M
ENCODING 77
SWIDTH 360 0
DWIDTH 9 0
BBX 9 25 0 -5
BITMAP
0000
0000
0000
0000
0000
4100
6300
6300
6300
7700
7700
7F00
6B00
6B00
6300
6300
6300
6300
6300
6300
0000
0000
0000
0000
0000
ENDCHAR

STARTCHAR N
ENCODING 78
SWIDTH 360 0
DWIDTH 9 0
BBX 9 25 0 -5
BITMAP
0000
0000
0000
0000
0000
6300
6300
6300
7300
7300
7300
7B00
6B00
6B00
6F00
6700
6700
6300
6300
6300
0000
0000
0000
0000
0000
ENDCHAR

STARTCHAR O
ENCODING 79
SWIDTH 360 0
DWIDTH 9 0
BBX 9 25 0 -5
BITMAP
0000
0000
0000
0000
0000
3E00
7F00
6300
6300
6300
6300
6300
6300
6300
6300
6300
6300
6300
7F00
3E00
0000
0000
0000
0000
0000
ENDCHAR

STARTCHAR P
ENCODING 80
SWIDTH 360 0
DWIDTH 9 0
BBX 9 25 0 -5
BITMAP
0000
0000
0000
0000
0000
7E00
7F00
6300
6300
6300
6300
6300
7F00
7E00
6000
6000
6000
6000
6000
6000
0000
0000
0000
0000
0000
ENDCHAR

STARTCHAR Q
ENCODING 81
SWIDTH 360 0
DWIDTH 9 0
BBX 9 25 0 -5
BITMAP
0000
0000
0000
0000
0000
3E00
7F00
6300
6300
6300
6300
6300
6300
6300
6300
6300
6300
6300
7F00
3E00
3000
7F00
6700
0000
0000
ENDCHAR

STARTCHAR R
ENCODING 82
SWIDTH 360 0
DWIDTH 9 0
BBX 9 25 0 -5
BITMAP
0000
0000
0000
0000
0000
7E00
7F00
6300
6300
6300
6300
6300
7E00
7E00
6C00
6600
6600
6300
6300
6300
0000
0000
0000
0000
0000
ENDCHAR

STARTCHAR S
ENCODING 83
SWIDTH 360 0
DWIDTH 9 0
BBX 9 25 0 -5
BITMAP
0000
0000
0000
0000
0000
3F00
7F00
6000
6000
7000
3000
3800
1C00
0E00
0600
0700
0300
0300
7F00
7E00
0000
0000
0000
0000
0000
ENDCHAR

STARTCHAR T
ENCODING 84
SWIDTH 360 0
DWIDTH 9 0
BBX 9 25 0 -5
BITMAP
0000
0000
0000
0000
0000
7F80
7F80
0C00
0C00
0C00
0C00
0C00
0C00
0C00
0C00
0C00
0C00
0C00
0C00
0C00
0000
0000
0000
0000
0000
ENDCHAR

STARTCHAR U
ENCODING 85
SWIDTH 360 0
DWIDTH 9 0
BBX 9 25 0 -5
BITMAP
0000
0000
0000
0000
0000
6300
6300
6300
6300
6300
6300
6300
6300
6300
6300
6300
6300
6300
7F00
3E00
0000
0000
0000
0000
0000
ENDCHAR

STARTCHAR V
ENCODING 86
SWIDTH 360 0
DWIDTH 9 0
BBX 9 25 0 -5
BITMAP
0000
0000
0000
0000
0000
6300
6300
6300
6300
6300
6300
6300
6300
6300
6300
6300
3600
3E00
1C00
1C00
0000
0000
0000
0000
0000
ENDCHAR

STARTCHAR W
ENCODING 87
SWIDTH 360 0
DWIDTH 9 0
BBX 9 25 0 -5
BITMAP
0000
0000
0000
0000
0000
6300
6300
6300
6300
6300
6300
6300
6B00
6B00
7F00
7700
7700
6300
6300
6300
0000
0000
0000
0000
0000
ENDCHAR

STARTCHAR X
ENCODING 88
SWIDTH 360 0
DWIDTH 9 0
BBX 9 25 0 -5
BITMAP
0000
0000
0000
0000
0000
6300
6300
6300
6300
6300
3600
3E00
1C00
3E00
3600
6300
6300
6300
6300
6300
0000
0000
0000
0000
0000
ENDCHAR

STARTCHAR Y
ENCODING 89
SWIDTH 360 0
DWIDTH 9 0
BBX 9 25 0 -5
BITMAP
0000
0000
0000
0000
0000
6180
6180
6180
6180
6180
6180
3300
3F00
1E00
0C00
0C00
0C00
0C00
0C00
0C00
0000
0000
0000
0000
0000
ENDCHAR

STARTCHAR Z
ENCODING 90
SWIDTH 360 0
DWIDTH 9 0
BBX 9 25 0 -5
BITMAP
0000
0000
0000
0000
0000
7F00
7F00
0300
0600
0600
0600
0C00
0C00
1C00
1800
1800
3800
3000
7F00
7F00
0000
0000
0000
0000
0000
ENDCHAR

STARTCHAR bracketleft
ENCODING 91
SWIDTH 360 0
DWIDTH 9 0
BBX 9 25 0 -5
BITMAP
0000
0000
0000
0000
1E00
1E00
1800
1800
1800
1800
1800
1800
1800
1800
1800
1800
1800
1800
1800
1800
1E00
1E00
0000
0000
0000
ENDCHAR

STARTCHAR backslash
ENCODING 92
SWIDTH 360 0
DWIDTH 9 0
BBX 9 25 0 -5
BITMAP
0000
0000
0000
3000
3000
3000
3000
3000
1800
1800
1800
1800
1800
0C00
0C00
0C00
0C00
0C00
0600
0600
0600
0600
0000
0000
0000
ENDCHAR

STARTCHAR bracketright
ENCODING 93
SWIDTH 360 0
DWIDTH 9 0
BBX 9 25 0 -5
BITMAP
0000
0000
0000
0000
3C00
3C00
0C00
0C00
0C00
0C00
0C00
0C00
0C00
0C00
0C00
0C00
0C00
0C00
0C00
0C00
3C00
3C00
0000
0000
0000
ENDCHAR

STARTCHAR asciicircum
ENCODING 94
SWIDTH 360 0
DWIDTH 9 0
BBX 9 25 0 -5
BITMAP
0000
0000
0000
0000
0000
0000
0000
0000
0000
0000
1C00
3E00
7700
6300
4100
0000
0000
0000
0000
0000
0000
0000
0000
0000
0000
ENDCHAR

STARTCHAR ldblank
ENCODING 95
SWIDTH 360 0
DWIDTH 9 0
BBX 9 25 0 -5
BITMAP
0000
0000
0000
0000
0000
0000
0000
0000
0000
0000
0000
0000
0000
0000
0000
0000
0000
0000
0000
0000
0000
0000
0000
0000
0000
ENDCHAR

STARTCHAR diamond
ENCODING 96
SWIDTH 360 0
DWIDTH 9 0
BBX 9 25 0 -5
BITMAP
0000
0000
0000
0000
0000
0000
0800
0800
1C00
1C00
3E00
3E00
7F00
7F00
3E00
3E00
1C00
1C00
0800
0800
0000
0000
0000
0000
0000
ENDCHAR

STARTCHAR checkerboard
ENCODING 97
SWIDTH 360 0
DWIDTH 9 0
BBX 9 25 0 -5
BITMAP
DB00
6D80
DB00
6D80
DB00
6D80
DB00
6D80
DB00
6D80
DB00
6D80
DB00
6D80
DB00
6D80
DB00
6D80
DB00
6D80
DB00
6D80
DB00
6D80
DB00
ENDCHAR

STARTCHAR HT
ENCODING 98
SWIDTH 360 0
DWIDTH 9 0
BBX 9 25 0 -5
BITMAP
0000
0000
0000
0000
6600
6600
6600
7E00
7E00
6600
6600
6600
6600
0000
1F80
0600
0600
0600
0600
0600
0600
0600
0000
0000
0000
ENDCHAR

STARTCHAR FF
ENCODING 99
SWIDTH 360 0
DWIDTH 9 0
BBX 9 25 0 -5
BITMAP
0000
0000
0000
0000
7C00
7C00
6000
6000
7800
7800
6000
6000
6000
0F00
0F00
0C00
0C00
0F00
0F00
0C00
0C00
0C00
0000
0000
0000
ENDCHAR

STARTCHAR CR
ENCODING 100
SWIDTH 360 0
DWIDTH 9 0
BBX 9 25 0 -5
BITMAP
0000
0000
0000
0000
3800
7C00
6400
6000
6000
6000
6400
7C00
3800
0000
3E00
3300
3300
3E00
3600
3600
3300
3300
0000
0000
0000
ENDCHAR

STARTCHAR LF
ENCODING 101
SWIDTH 360 0
DWIDTH 9 0
BBX 9 25 0 -5
BITMAP
0000
0000
0000
0000
6000
6000
6000
6000
6000
6000
7C00
7C00
0000
1F00
1F00
1800
1800
1E00
1E00
1800
1800
1800
0000
0000
0000
ENDCHAR

STARTCHAR degree
ENCODING 102
SWIDTH 360 0
DWIDTH 9 0
BBX 9 25 0 -5
BITMAP
0000
0000
0000
3E00
7F00
6300
6300
6300
6300
7F00
3E00
0000
0000
0000
0000
0000
0000
0000
0000
0000
0000
0000
0000
0000
0000
ENDCHAR

STARTCHAR plusminus
ENCODING 103
SWIDTH 360 0
DWIDTH 9 0
BBX 9 25 0 -5
BITMAP
0000
0000
0000
0000
0000
0000
1800
1800
1800
1800
7E00
7E00
1800
1800
1800
1800
0000
0000
7E00
7E00
0000
0000
0000
0000
0000
ENDCHAR

STARTCHAR NL
ENCODING 104
SWIDTH 360 0
DWIDTH 9 0
BBX 9 25 0 -5
BITMAP
0000
0000
0000
0000
4600
6600
6600
7600
7E00
6E00
6600
6600
6200
0000
1800
1800
1800
1800
1800
1800
1F00
1F00
0000
0000
0000
ENDCHAR

STARTCHAR VT
ENCODING 105
SWIDTH 360 0
DWIDTH 9 0
BBX 9 25 0 -5
BITMAP
0000
0000
0000
0000
6600
6600
6600
6600
6600
6600
3C00
3C00
1800
0000
1F80
1F80
0600
0600
0600
0600
0600
0600
0000
0000
0000
ENDCHAR

STARTCHAR ldcornsqlr
ENCODING 106
SWIDTH 360 0
DWIDTH 9 0
BBX 9 25 0 -5
BITMAP
1C00
1C00
1C00
1C00
1C00
1C00
1C00
1C00
1C00
1C00
1C00
1C00
FC00
FC00
0000
0000
0000
0000
0000
0000
0000
0000
0000
0000
0000
ENDCHAR

STARTCHAR ldcornsqur
ENCODING 107
SWIDTH 360 0
DWIDTH 9 0
BBX 9 25 0 -5
BITMAP
0000
0000
0000
0000
0000
0000
0000
0000
0000
0000
0000
0000
FC00
FC00
1C00
1C00
1C00
1C00
1C00
1C00
1C00
1C00
1C00
1C00
1C00
ENDCHAR

STARTCHAR ldcornsqul
ENCODING 108
SWIDTH 360 0
DWIDTH 9 0
BBX 9 25 0 -5
BITMAP
0000
0000
0000
0000
0000
0000
0000
0000
0000
0000
0000
0000
1F80
1F80
1C00
1C00
1C00
1C00
1C00
1C00
1C00
1C00
1C00
1C00
1C00
ENDCHAR

STARTCHAR ldcornsqll
ENCODING 109
SWIDTH 360 0
DWIDTH 9 0
BBX 9 25 0 -5
BITMAP
1C00
1C00
1C00
1C00
1C00
1C00
1C00
1C00
1C00
1C00
1C00
1C00
1F80
1F80
0000
0000
0000
0000
0000
0000
0000
0000
0000
0000
0000
ENDCHAR

STARTCHAR ldcross
ENCODING 110
SWIDTH 360 0
DWIDTH 9 0
BBX 9 25 0 -5
BITMAP
1C00
1C00
1C00
1C00
1C00
1C00
1C00
1C00
1C00
1C00
1C00
1C00
FF80
FF80
1C00
1C00
1C00
1C00
1C00
1C00
1C00
1C00
1C00
1C00
1C00
ENDCHAR

STARTCHAR ldscan1
ENCODING 111
SWIDTH 360 0
DWIDTH 9 0
BBX 9 25 0 -5
BITMAP
0000
0000
FF80
FF80
0000
0000
0000
0000
0000
0000
0000
0000
0000
0000
0000
0000
0000
0000
0000
0000
0000
0000
0000
0000
0000
ENDCHAR

STARTCHAR ldscan3
ENCODING 112
SWIDTH 360 0
DWIDTH 9 0
BBX 9 25 0 -5
BITMAP
0000
0000
0000
0000
0000
0000
0000
0000
FF80
FF80
0000
0000
0000
0000
0000
0000
0000
0000
0000
0000
0000
0000
0000
0000
0000
ENDCHAR

STARTCHAR ldhorizontal
ENCODING 113
SWIDTH 360 0
DWIDTH 9 0
BBX 9 25 0 -5
BITMAP
0000
0000
0000
0000
0000
0000
0000
0000
0000
0000
0000
0000
FF80
FF80
0000
0000
0000
0000
0000
0000
0000
0000
0000
0000
0000
ENDCHAR

STARTCHAR ldscan7
ENCODING 114
SWIDTH 360 0
DWIDTH 9 0
BBX 9 25 0 -5
BITMAP
0000
0000
0000
0000
0000
0000
0000
0000
0000
0000
0000
0000
0000
0000
0000
0000
0000
0000
FF80
FF80
0000
0000
0000
0000
0000
ENDCHAR

STARTCHAR ldscan9
ENCODING 115
SWIDTH 360 0
DWIDTH 9 0
BBX 9 25 0 -5
BITMAP
0000
0000
0000
0000
0000
0000
0000
0000
0000
0000
0000
0000
0000
0000
0000
0000
0000
0000
0000
0000
0000
0000
0000
FF80
FF80
ENDCHAR

STARTCHAR ldteelft
ENCODING 116
SWIDTH 360 0
DWIDTH 9 0
BBX 9 25 0 -5
BITMAP
1C00
1C00
1C00
1C00
1C00
1C00
1C00
1C00
1C00
1C00
1C00
1C00
1F80
1F80
1C00
1C00
1C00
1C00
1C00
1C00
1C00
1C00
1C00
1C00
1C00
ENDCHAR

STARTCHAR ldteert
ENCODING 117
SWIDTH 360 0
DWIDTH 9 0
BBX 9 25 0 -5
BITMAP
1C00
1C00
1C00
1C00
1C00
1C00
1C00
1C00
1C00
1C00
1C00
1C00
FC00
FC00
1C00
1C00
1C00
1C00
1C00
1C00
1C00
1C00
1C00
1C00
1C00
ENDCHAR

STARTCHAR ldteebt
ENCODING 118
SWIDTH 360 0
DWIDTH 9 0
BBX 9 25 0 -5
BITMAP
1C00
1C00
1C00
1C00
1C00
1C00
1C00
1C00
1C00
1C00
1C00
1C00
FF80
FF80
0000
0000
0000
0000
0000
0000
0000
0000
0000
0000
0000
ENDCHAR

STARTCHAR ldteetp
ENCODING 119
SWIDTH 360 0
DWIDTH 9 0
BBX 9 25 0 -5
BITMAP
0000
0000
0000
0000
0000
0000
0000
0000
0000
0000
0000
0000
FF80
FF80
1C00
1C00
1C00
1C00
1C00
1C00
1C00
1C00
1C00
1C00
1C00
ENDCHAR

STARTCHAR ldvertical
ENCODING 120
SWIDTH 360 0
DWIDTH 9 0
BBX 9 25 0 -5
BITMAP
1C00
1C00
1C00
1C00
1C00
1C00
1C00
1C00
1C00
1C00
1C00
1C00
1C00
1C00
1C00
1C00
1C00
1C00
1C00
1C00
1C00
1C00
1C00
1C00
1C00
ENDCHAR

STARTCHAR lessequal
ENCODING 121
SWIDTH 360 0
DWIDTH 9 0
BBX 9 25 0 -5
BITMAP
0000
0000
0000
0000
0000
0000
0000
0300
0F00
1E00
3800
7000
3800
1E00
0F00
0300
0000
0000
7F00
7F00
0000
0000
0000
0000
0000
ENDCHAR

STARTCHAR greaterequal
ENCODING 122
SWIDTH 360 0
DWIDTH 9 0
BBX 9 25 0 -5
BITMAP
0000
0000
0000
0000
0000
0000
0000
6000
7800
3C00
0E00
0700
0E00
3C00
7800
6000
0000
0000
7F00
7F00
0000
0000
0000
0000
0000
ENDCHAR

STARTCHAR pi
ENCODING 123
SWIDTH 360 0
DWIDTH 9 0
BBX 9 25 0 -5
BITMAP
0000
0000
0000
0000
0000
0000
0000
0000
7F80
7F80
3300
3300
3300
3300
6600
6600
6600
6600
6600
6600
0000
0000
0000
0000
0000
ENDCHAR

STARTCHAR notequal
ENCODING 124
SWIDTH 360 0
DWIDTH 9 0
BBX 9 25 0 -5
BITMAP
0000
0000
0000
0000
0000
0000
0000
0600
0600
0600
7F00
7F00
0C00
0C00
0C00
7F00
7F00
1800
1800
1800
0000
0000
0000
0000
0000
ENDCHAR

STARTCHAR sterling
ENCODING 125
SWIDTH 360 0
DWIDTH 9 0
BBX 9 25 0 -5
BITMAP
0000
0000
0000
0000
0000
1E00
3F00
3300
3300
3800
1800
7E00
7E00
1800
1800
3800
3000
7F00
7F00
6700
0000
0000
0000
0000
0000
ENDCHAR

STARTCHAR periodcentered
ENCODING 126
SWIDTH 360 0
DWIDTH 9 0
BBX 9 25 0 -5
BITMAP
0000
0000
0000
0000
0000
0000
0000
0000
0000
0000
0000
0000
1800
3C00
3C00
1800
0000
0000
0000
0000
0000
0000
0000
0000
0000
ENDCHAR

STARTCHAR Error
ENCODING 159
SWIDTH 360 0
DWIDTH 9 0
BBX 9 25 0 -5
BITMAP
3E00
7F00
FF80
E380
E380
E000
E000
F000
7800
3C00
1C00
1C00
1C00
1C00
1C00
1C00
1C00
1C00
0000
0000
0000
1C00
1C00
1C00
1C00
ENDCHAR

STARTCHAR space
ENCODING 160
SWIDTH 360 0
DWIDTH 9 0
BBX 9 25 0 -5
BITMAP
0000
0000
0000
0000
0000
0000
0000
0000
0000
0000
0000
0000
0000
0000
0000
0000
0000
0000
0000
0000
0000
0000
0000
0000
0000
ENDCHAR

STARTCHAR ldradicalbt
ENCODING 161
SWIDTH 360 0
DWIDTH 9 0
BBX 9 25 0 -5
BITMAP
1C00
1C00
1C00
1C00
1C00
1C00
1C00
1C00
1C00
9C00
DC00
DC00
7C00
3C00
3C00
1C00
0000
0000
0000
0000
0000
0000
0000
0000
0000
ENDCHAR

STARTCHAR ldradicaltp
ENCODING 162
SWIDTH 360 0
DWIDTH 9 0
BBX 9 25 0 -5
BITMAP
0000
0000
0000
0000
0000
0000
0000
0000
0000
0000
0000
0000
1F80
1F80
1C00
1C00
1C00
1C00
1C00
1C00
1C00
1C00
1C00
1C00
1C00
ENDCHAR

STARTCHAR ldhorizontal
ENCODING 163
SWIDTH 360 0
DWIDTH 9 0
BBX 9 25 0 -5
BITMAP
0000
0000
0000
0000
0000
0000
0000
0000
0000
0000
0000
0000
FF80
FF80
0000
0000
0000
0000
0000
0000
0000
0000
0000
0000
0000
ENDCHAR

STARTCHAR ldintegraltp
ENCODING 164
SWIDTH 360 0
DWIDTH 9 0
BBX 9 25 0 -5
BITMAP
0000
0000
0300
0700
0F00
0C00
1C00
1C00
1C00
1C00
1C00
1C00
1C00
1C00
1C00
1C00
1C00
1C00
1C00
1C00
1C00
1C00
1C00
1C00
1C00
ENDCHAR

STARTCHAR ldintegralbt
ENCODING 165
SWIDTH 360 0
DWIDTH 9 0
BBX 9 25 0 -5
BITMAP
1C00
1C00
1C00
1C00
1C00
1C00
1C00
1C00
1C00
1C00
1C00
1C00
1C00
1C00
1C00
1C00
1C00
1C00
1C00
1C00
1C00
7800
7800
6000
0000
ENDCHAR

STARTCHAR ldvertical
ENCODING 166
SWIDTH 360 0
DWIDTH 9 0
BBX 9 25 0 -5
BITMAP
1C00
1C00
1C00
1C00
1C00
1C00
1C00
1C00
1C00
1C00
1C00
1C00
1C00
1C00
1C00
1C00
1C00
1C00
1C00
1C00
1C00
1C00
1C00
1C00
1C00
ENDCHAR

STARTCHAR ldbracketlfttp
ENCODING 167
SWIDTH 360 0
DWIDTH 9 0
BBX 9 25 0 -5
BITMAP
0000
0000
1F00
1F00
1F00
1C00
1C00
1C00
1C00
1C00
1C00
1C00
1C00
1C00
1C00
1C00
1C00
1C00
1C00
1C00
1C00
1C00
1C00
1C00
1C00
ENDCHAR

STARTCHAR ldbracketlftbt
ENCODING 168
SWIDTH 360 0
DWIDTH 9 0
BBX 9 25 0 -5
BITMAP
1C00
1C00
1C00
1C00
1C00
1C00
1C00
1C00
1C00
1C00
1C00
1C00
1C00
1C00
1C00
1C00
1C00
1C00
1C00
1C00
1C00
1F00
1F00
1F00
0000
ENDCHAR

STARTCHAR ldbracketrttp
ENCODING 169
SWIDTH 360 0
DWIDTH 9 0
BBX 9 25 0 -5
BITMAP
0000
0000
0000
7C00
7C00
7C00
1C00
1C00
1C00
1C00
1C00
1C00
1C00
1C00
1C00
1C00
1C00
1C00
1C00
1C00
1C00
1C00
1C00
1C00
1C00
ENDCHAR

STARTCHAR ldbracketrtbt
ENCODING 170
SWIDTH 360 0
DWIDTH 9 0
BBX 9 25 0 -5
BITMAP
1C00
1C00
1C00
1C00
1C00
1C00
1C00
1C00
1C00
1C00
1C00
1C00
1C00
1C00
1C00
1C00
1C00
1C00
1C00
1C00
1C00
7C00
7C00
7C00
0000
ENDCHAR

STARTCHAR ldbracelfttp
ENCODING 171
SWIDTH 360 0
DWIDTH 9 0
BBX 9 25 0 -5
BITMAP
0000
0000
0300
0700
0F00
0C00
1C00
1C00
1C00
1C00
1C00
1C00
1C00
1C00
1C00
1C00
1C00
1C00
1C00
1C00
1C00
1C00
1C00
1C00
1C00
ENDCHAR

STARTCHAR ldbracelftbt
ENCODING 172
SWIDTH 360 0
DWIDTH 9 0
BBX 9 25 0 -5
BITMAP
1C00
1C00
1C00
1C00
1C00
1C00
1C00
1C00
1C00
1C00
1C00
1C00
1C00
1C00
1C00
1C00
1C00
1C00
1C00
1C00
1C00
1C00
0C00
0F00
0700
ENDCHAR

STARTCHAR ldbracerttp
ENCODING 173
SWIDTH 360 0
DWIDTH 9 0
BBX 9 25 0 -5
BITMAP
0000
0000
7000
7800
7800
1C00
1C00
1C00
1C00
1C00
1C00
1C00
1C00
1C00
1C00
1C00
1C00
1C00
1C00
1C00
1C00
1C00
1C00
1C00
1C00
ENDCHAR

STARTCHAR ldbracertbt
ENCODING 174
SWIDTH 360 0
DWIDTH 9 0
BBX 9 25 0 -5
BITMAP
1C00
1C00
1C00
1C00
1C00
1C00
1C00
1C00
1C00
1C00
1C00
1C00
1C00
1C00
1C00
1C00
1C00
1C00
1C00
1C00
1C00
7800
7800
7000
0000
ENDCHAR

STARTCHAR ldbracelftmid
ENCODING 175
SWIDTH 360 0
DWIDTH 9 0
BBX 9 25 0 -5
BITMAP
1C00
1C00
1C00
1C00
1C00
1C00
1C00
1C00
1C00
1C00
1C00
1C00
3800
7000
3800
1C00
1C00
1C00
1C00
1C00
1C00
1C00
1C00
1C00
1C00
ENDCHAR

STARTCHAR ldbracertmid
ENCODING 176
SWIDTH 360 0
DWIDTH 9 0
BBX 9 25 0 -5
BITMAP
1C00
1C00
1C00
1C00
1C00
1C00
1C00
1C00
1C00
1C00
1C00
1C00
0E00
0700
0E00
1C00
1C00
1C00
1C00
1C00
1C00
1C00
1C00
1C00
1C00
ENDCHAR

STARTCHAR ldsigmalfttp
ENCODING 177
SWIDTH 360 0
DWIDTH 9 0
BBX 9 25 0 -5
BITMAP
0000
0000
0000
0000
0000
0000
0000
0000
0000
0000
0000
0000
1F80
1F80
1C00
0C00
0E00
0600
0600
0700
0300
0380
0180
0180
0080
ENDCHAR

STARTCHAR ldsigmalftbt
ENCODING 178
SWIDTH 360 0
DWIDTH 9 0
BBX 9 25 0 -5
BITMAP
0180
0180
0180
0380
0300
0300
0700
0600
0600
0E00
0C00
1C00
1F80
1F80
0000
0000
0000
0000
0000
0000
0000
0000
0000
0000
0000
ENDCHAR

STARTCHAR ldbackslash
ENCODING 179
SWIDTH 360 0
DWIDTH 9 0
BBX 9 25 0 -5
BITMAP
8000
C000
C000
6000
6000
6000
3000
3000
3000
1800
1800
1800
0C00
0C00
0C00
0E00
0600
0600
0600
0300
0300
0300
0180
0180
0080
ENDCHAR

STARTCHAR ldslash
ENCODING 180
SWIDTH 360 0
DWIDTH 9 0
BBX 9 25 0 -5
BITMAP
0080
0180
0180
0300
0300
0300
0600
0600
0600
0C00
0C00
0C00
1800
1800
1800
3800
3000
3000
3000
6000
6000
6000
C000
C000
8000
ENDCHAR

STARTCHAR ldsigmarttp
ENCODING 181
SWIDTH 360 0
DWIDTH 9 0
BBX 9 25 0 -5
BITMAP
0000
0000
0000
0000
0000
0000
0000
0000
0000
0000
0000
0000
FF00
FF00
0300
0300
0300
0000
0000
0000
0000
0000
0000
0000
0000
ENDCHAR

STARTCHAR ldsigmartbt
ENCODING 182
SWIDTH 360 0
DWIDTH 9 0
BBX 9 25 0 -5
BITMAP
0000
0000
0000
0000
0000
0000
0000
0000
0000
0300
0300
0300
FF00
FF00
0000
0000
0000
0000
0000
0000
0000
0000
0000
0000
0000
ENDCHAR

STARTCHAR ldsigmamid
ENCODING 183
SWIDTH 360 0
DWIDTH 9 0
BBX 9 25 0 -5
BITMAP
8000
C000
C000
C000
6000
6000
6000
7000
3000
3000
3800
1800
1800
3800
3000
3000
7000
6000
6000
6000
C000
C000
C000
8000
8000
ENDCHAR

STARTCHAR lessequal
ENCODING 188
SWIDTH 360 0
DWIDTH 9 0
BBX 9 25 0 -5
BITMAP
0000
0000
0000
0000
0000
0000
0000
0300
0F00
1E00
3800
7000
3800
1E00
0F00
0300
0000
0000
7F00
7F00
0000
0000
0000
0000
0000
ENDCHAR

STARTCHAR notequal
ENCODING 189
SWIDTH 360 0
DWIDTH 9 0
BBX 9 25 0 -5
BITMAP
0000
0000
0000
0000
0000
0000
0000
0600
0600
0600
7F00
7F00
0C00
0C00
0C00
7F00
7F00
1800
1800
1800
0000
0000
0000
0000
0000
ENDCHAR

STARTCHAR greaterequal
ENCODING 190
SWIDTH 360 0
DWIDTH 9 0
BBX 9 25 0 -5
BITMAP
0000
0000
0000
0000
0000
0000
0000
6000
7800
3C00
0E00
0700
0E00
3C00
7800
6000
0000
0000
7F00
7F00
0000
0000
0000
0000
0000
ENDCHAR

STARTCHAR integral
ENCODING 191
SWIDTH 360 0
DWIDTH 9 0
BBX 9 25 0 -5
BITMAP
0000
0600
0F00
0D00
0C00
0C00
0C00
0C00
0C00
0C00
0C00
0C00
0C00
0C00
0C00
0C00
0C00
0C00
0C00
0C00
0C00
0C00
2C00
3800
1000
ENDCHAR

STARTCHAR therefore
ENCODING 192
SWIDTH 360 0
DWIDTH 9 0
BBX 9 25 0 -5
BITMAP
0000
0000
0000
0000
0000
0000
0000
0000
0000
0C00
1E00
0C00
0000
0000
0000
0000
6300
F780
6300
0000
0000
0000
0000
0000
0000
ENDCHAR

STARTCHAR proportional
ENCODING 193
SWIDTH 360 0
DWIDTH 9 0
BBX 9 25 0 -5
BITMAP
0000
0000
0000
0000
0000
0000
0000
0000
3980
7F80
6700
6600
6600
6600
6600
6600
6700
7F80
3980
0000
0000
0000
0000
0000
0000
ENDCHAR

STARTCHAR infinity
ENCODING 194
SWIDTH 360 0
DWIDTH 9 0
BBX 9 25 0 -5
BITMAP
0000
0000
0000
0000
0000
0000
0000
0000
7300
FF80
C980
C980
C980
C980
C980
C980
C980
FF80
7300
0000
0000
0000
0000
0000
0000
ENDCHAR

STARTCHAR divide
ENCODING 195
SWIDTH 360 0
DWIDTH 9 0
BBX 9 25 0 -5
BITMAP
0000
0000
0000
0000
0000
0000
1C00
1C00
1C00
1C00
0000
0000
7F00
7F00
0000
0000
1C00
1C00
1C00
1C00
0000
0000
0000
0000
0000
ENDCHAR

STARTCHAR Delta
ENCODING 196
SWIDTH 360 0
DWIDTH 9 0
BBX 9 25 0 -5
BITMAP
0000
0000
0000
0000
0000
1C00
1C00
3E00
3E00
3600
7700
6300
6300
6300
6300
6300
6300
7F00
7F00
7F00
0000
0000
0000
0000
0000
ENDCHAR

STARTCHAR gradient
ENCODING 197
SWIDTH 360 0
DWIDTH 9 0
BBX 9 25 0 -5
BITMAP
0000
0000
0000
0000
0000
7F00
7F00
7F00
6300
6300
6300
6300
6300
6300
7700
3600
3E00
3E00
1C00
1C00
0000
0000
0000
0000
0000
ENDCHAR

STARTCHAR Phi
ENCODING 198
SWIDTH 360 0
DWIDTH 9 0
BBX 9 25 0 -5
BITMAP
0000
0000
0000
0000
0000
3C00
3C00
1800
3C00
7E00
DB00
DB00
DB00
DB00
DB00
7E00
3C00
1800
3C00
3C00
0000
0000
0000
0000
0000
ENDCHAR

STARTCHAR Gamma
ENCODING 199
SWIDTH 360 0
DWIDTH 9 0
BBX 9 25 0 -5
BITMAP
0000
0000
0000
0000
0000
7F00
7F00
7F00
3300
3300
3000
3000
3000
3000
3000
3000
3000
7800
7800
7800
0000
0000
0000
0000
0000
ENDCHAR

STARTCHAR similar
ENCODING 200
SWIDTH 360 0
DWIDTH 9 0
BBX 9 25 0 -5
BITMAP
0000
0000
0000
0000
0000
0000
0000
0000
0000
0000
3100
7F00
7F00
4600
0000
0000
0000
0000
0000
0000
0000
0000
0000
0000
0000
ENDCHAR

STARTCHAR approxequal
ENCODING 201
SWIDTH 360 0
DWIDTH 9 0
BBX 9 25 0 -5
BITMAP
0000
0000
0000
0000
0000
0000
0000
0000
0000
3100
7F00
7F00
4600
0000
0000
0000
7F00
7F00
0000
0000
0000
0000
0000
0000
0000
ENDCHAR

STARTCHAR Theta
ENCODING 202
SWIDTH 360 0
DWIDTH 9 0
BBX 9 25 0 -5
BITMAP
0000
0000
0000
0000
0000
3E00
7F00
7F00
6300
6300
6300
7F00
7F00
6300
6300
6300
6300
7F00
7F00
3E00
0000
0000
0000
0000
0000
ENDCHAR

STARTCHAR multiply
ENCODING 203
SWIDTH 360 0
DWIDTH 9 0
BBX 9 25 0 -5
BITMAP
0000
0000
0000
0000
0000
0000
0000
0000
6300
6300
7700
3E00
1C00
3E00
7700
6300
6300
0000
0000
0000
0000
0000
0000
0000
0000
ENDCHAR

STARTCHAR Lambda
ENCODING 204
SWIDTH 360 0
DWIDTH 9 0
BBX 9 25 0 -5
BITMAP
0000
0000
0000
0000
0000
1C00
1C00
3E00
3E00
3600
7700
6300
6300
6300
6300
6300
6300
6300
6300
6300
0000
0000
0000
0000
0000
ENDCHAR

STARTCHAR arrowdblboth
ENCODING 205
SWIDTH 360 0
DWIDTH 9 0
BBX 9 25 0 -5
BITMAP
0000
0000
0000
0000
0000
0000
2400
2400
6600
7E00
FF00
FF00
C300
FF00
7E00
7E00
6600
2400
2400
0000
0000
0000
0000
0000
0000
ENDCHAR

STARTCHAR arrowdblright
ENCODING 206
SWIDTH 360 0
DWIDTH 9 0
BBX 9 25 0 -5
BITMAP
0000
0000
0000
0000
0000
0000
1000
1800
0C00
FE00
FE00
FF00
0700
FE00
FE00
FC00
0C00
1800
1000
0000
0000
0000
0000
0000
0000
ENDCHAR

STARTCHAR equivalence
ENCODING 207
SWIDTH 360 0
DWIDTH 9 0
BBX 9 25 0 -5
BITMAP
0000
0000
0000
0000
0000
0000
0000
0000
7F00
7F00
0000
0000
7F00
7F00
0000
0000
7F00
7F00
0000
0000
0000
0000
0000
0000
0000
ENDCHAR

STARTCHAR Pi
ENCODING 208
SWIDTH 360 0
DWIDTH 9 0
BBX 9 25 0 -5
BITMAP
0000
0000
0000
0000
0000
7F00
7F00
7F00
6300
6300
6300
6300
6300
6300
6300
6300
6300
6300
6300
6300
0000
0000
0000
0000
0000
ENDCHAR

STARTCHAR Psi
ENCODING 209
SWIDTH 360 0
DWIDTH 9 0
BBX 9 25 0 -5
BITMAP
0000
0000
0000
0000
0000
3C00
3C00
1800
DB00
DB00
DB00
DB00
DB00
7E00
3C00
1800
1800
1800
3C00
3C00
0000
0000
0000
0000
0000
ENDCHAR

STARTCHAR Sigma
ENCODING 211
SWIDTH 360 0
DWIDTH 9 0
BBX 9 25 0 -5
BITMAP
0000
0000
0000
0000
0000
7F00
7F00
7F00
7100
3800
1C00
0E00
0E00
1C00
1800
3800
7100
7F00
7F00
7F00
0000
0000
0000
0000
0000
ENDCHAR

STARTCHAR radical
ENCODING 214
SWIDTH 360 0
DWIDTH 9 0
BBX 9 25 0 -5
BITMAP
0000
0000
0000
0180
0180
0180
0180
0300
0300
0300
0300
6300
6300
6600
6600
6600
3600
3600
3400
3C00
1C00
1C00
1C00
0000
0000
ENDCHAR

STARTCHAR Omega
ENCODING 215
SWIDTH 360 0
DWIDTH 9 0
BBX 9 25 0 -5
BITMAP
0000
0000
0000
0000
0000
1C00
3E00
3E00
7700
6300
6300
6300
6300
6300
3600
3600
3600
3600
7700
7700
0000
0000
0000
0000
0000
ENDCHAR

STARTCHAR Xi
ENCODING 216
SWIDTH 360 0
DWIDTH 9 0
BBX 9 25 0 -5
BITMAP
0000
0000
0000
0000
0000
7F00
7F00
7F00
6300
0000
2200
3E00
3E00
3E00
2200
0000
6300
7F00
7F00
7F00
0000
0000
0000
0000
0000
ENDCHAR

STARTCHAR Upsilon1
ENCODING 217
SWIDTH 360 0
DWIDTH 9 0
BBX 9 25 0 -5
BITMAP
0000
0000
0000
0000
0000
6300
6300
6300
6300
6300
6300
3E00
3E00
3E00
1800
1800
1800
3C00
3C00
3C00
0000
0000
0000
0000
0000
ENDCHAR

STARTCHAR propersubset
ENCODING 218
SWIDTH 360 0
DWIDTH 9 0
BBX 9 25 0 -5
BITMAP
0000
0000
0000
0000
0000
0000
1F00
3F00
3F00
6000
6000
6000
6000
6000
6000
6000
6000
3F00
3F00
1F00
0000
0000
0000
0000
0000
ENDCHAR

STARTCHAR propersuperset
ENCODING 219
SWIDTH 360 0
DWIDTH 9 0
BBX 9 25 0 -5
BITMAP
0000
0000
0000
0000
0000
0000
7C00
7E00
7E00
0300
0300
0300
0300
0300
0300
0300
0300
7E00
7E00
7C00
0000
0000
0000
0000
0000
ENDCHAR

STARTCHAR intersection
ENCODING 220
SWIDTH 360 0
DWIDTH 9 0
BBX 9 25 0 -5
BITMAP
0000
0000
0000
0000
0000
0000
3E00
7F00
7F00
6300
6300
6300
6300
6300
6300
6300
6300
6300
6300
6300
0000
0000
0000
0000
0000
ENDCHAR

STARTCHAR union
ENCODING 221
SWIDTH 360 0
DWIDTH 9 0
BBX 9 25 0 -5
BITMAP
0000
0000
0000
0000
0000
0000
6300
6300
6300
6300
6300
6300
6300
6300
6300
6300
6300
7F00
7F00
3E00
0000
0000
0000
0000
0000
ENDCHAR

STARTCHAR logicaland
ENCODING 222
SWIDTH 360 0
DWIDTH 9 0
BBX 9 25 0 -5
BITMAP
0000
0000
0000
0000
0000
0000
0000
1800
1800
3C00
3C00
2400
6600
6600
6600
6600
C300
C300
C300
C300
0000
0000
0000
0000
0000
ENDCHAR

STARTCHAR logicalor
ENCODING 223
SWIDTH 360 0
DWIDTH 9 0
BBX 9 25 0 -5
BITMAP
0000
0000
0000
0000
0000
0000
0000
C300
C300
C300
6600
6600
6600
6600
3C00
3C00
3C00
1800
1800
1800
0000
0000
0000
0000
0000
ENDCHAR

STARTCHAR logicalnot
ENCODING 224
SWIDTH 360 0
DWIDTH 9 0
BBX 9 25 0 -5
BITMAP
0000
0000
0000
0000
0000
0000
0000
0000
0000
7F00
7F00
7F00
0300
0300
0300
0300
0000
0000
0000
0000
0000
0000
0000
0000
0000
ENDCHAR

STARTCHAR alpha
ENCODING 225
SWIDTH 360 0
DWIDTH 9 0
BBX 9 25 0 -5
BITMAP
0000
0000
0000
0000
0000
0000
0000
0000
1E80
3F80
3380
3380
3300
6300
6600
6600
6600
7F00
7F00
3B00
0000
0000
0000
0000
0000
ENDCHAR

STARTCHAR beta
ENCODING 226
SWIDTH 360 0
DWIDTH 9 0
BBX 9 25 0 -5
BITMAP
0000
0000
0000
1E00
1E00
3F00
3300
3300
3300
3300
3E00
3E00
3300
7300
7300
6300
6300
7F00
7E00
FC00
C000
C000
C000
C000
0000
ENDCHAR

STARTCHAR chi
ENCODING 227
SWIDTH 360 0
DWIDTH 9 0
BBX 9 25 0 -5
BITMAP
0000
0000
0000
0000
0000
0000
0000
0000
3300
3300
3300
3300
3B00
1A00
1E00
3E00
3C00
3C00
7E00
6600
E600
C600
C600
C600
0000
ENDCHAR

STARTCHAR delta
ENCODING 228
SWIDTH 360 0
DWIDTH 9 0
BBX 9 25 0 -5
BITMAP
0000
0000
0000
1E00
1E00
3E00
3000
3800
1C00
3C00
3E00
6700
E700
C300
C300
C300
C700
FE00
7C00
3800
0000
0000
0000
0000
0000
ENDCHAR

STARTCHAR epsilon
ENCODING 229
SWIDTH 360 0
DWIDTH 9 0
BBX 9 25 0 -5
BITMAP
0000
0000
0000
0000
0000
0000
0000
0000
1F00
3F00
3F00
3000
7000
7E00
7E00
6000
6000
7F00
7F00
3F00
0000
0000
0000
0000
0000
ENDCHAR

STARTCHAR phi
ENCODING 230
SWIDTH 360 0
DWIDTH 9 0
BBX 9 25 0 -5
BITMAP
0000
0000
0000
0000
0400
0400
0C00
0C00
1F00
7F80
6580
6580
CD80
C980
DB80
D300
D300
FE00
FE00
7800
3000
3000
2000
2000
0000
ENDCHAR

STARTCHAR gamma
ENCODING 231
SWIDTH 360 0
DWIDTH 9 0
BBX 9 25 0 -5
BITMAP
0000
0000
0000
0000
0000
0000
0000
0000
6300
6300
6300
6300
7300
3300
3300
3600
3E00
1C00
1C00
1C00
3800
3800
3800
3800
0000
ENDCHAR

STARTCHAR eta
ENCODING 232
SWIDTH 360 0
DWIDTH 9 0
BBX 9 25 0 -5
BITMAP
0000
0000
0000
0000
0000
0000
0000
0000
6700
7F00
3B00
3300
3300
3300
6300
6600
6600
6600
6600
6600
0600
0600
0600
0600
0000
ENDCHAR

STARTCHAR iota
ENCODING 233
SWIDTH 360 0
DWIDTH 9 0
BBX 9 25 0 -5
BITMAP
0000
0000
0000
0000
0000
0000
0000
0000
7C00
7C00
1C00
1C00
1800
1800
3800
3800
3800
3E00
3E00
1E00
0000
0000
0000
0000
0000
ENDCHAR

STARTCHAR theta
ENCODING 234
SWIDTH 360 0
DWIDTH 9 0
BBX 9 25 0 -5
BITMAP
0000
0000
0000
1E00
1E00
3F00
3300
6300
6300
6300
7F00
7F00
6300
6300
6300
6300
6600
7E00
3E00
3C00
0000
0000
0000
0000
0000
ENDCHAR

STARTCHAR kappa
ENCODING 235
SWIDTH 360 0
DWIDTH 9 0
BBX 9 25 0 -5
BITMAP
0000
0000
0000
0000
0000
0000
0000
0000
7300
7300
3600
3600
3C00
3C00
7C00
7C00
6600
6600
6300
6300
0000
0000
0000
0000
0000
ENDCHAR

STARTCHAR lambda
ENCODING 236
SWIDTH 360 0
DWIDTH 9 0
BBX 9 25 0 -5
BITMAP
0000
0000
1C00
1C00
0C00
0C00
0E00
0E00
0E00
1E00
1F00
1B00
3300
3300
3300
7300
6300
6300
6300
6300
0000
0000
0000
0000
0000
ENDCHAR

STARTCHAR nu
ENCODING 238
SWIDTH 360 0
DWIDTH 9 0
BBX 9 25 0 -5
BITMAP
0000
0000
0000
0000
0000
0000
0000
0000
6300
6300
6300
6300
7300
7300
7300
3600
3E00
3C00
3C00
3800
0000
0000
0000
0000
0000
ENDCHAR

STARTCHAR partialdiff
ENCODING 239
SWIDTH 360 0
DWIDTH 9 0
BBX 9 25 0 -5
BITMAP
0000
0000
0000
7000
7C00
1C00
0E00
0E00
0700
1F00
3F00
3300
6300
6300
6300
6300
6700
7E00
3E00
1C00
0000
0000
0000
0000
0000
ENDCHAR

STARTCHAR pi
ENCODING 240
SWIDTH 360 0
DWIDTH 9 0
BBX 9 25 0 -5
BITMAP
0000
0000
0000
0000
0000
0000
0000
0000
7F80
7F80
3300
3300
3300
3300
6600
6600
6600
6600
6600
6600
0000
0000
0000
0000
0000
ENDCHAR

STARTCHAR psi
ENCODING 241
SWIDTH 360 0
DWIDTH 9 0
BBX 9 25 0 -5
BITMAP
0000
0000
0000
0000
0000
0C00
0C00
0C00
6D80
6D80
6D80
6D80
C980
D980
D980
D980
DB00
FF00
FF00
7E00
3000
3000
3000
3000
0000
ENDCHAR

STARTCHAR rho
ENCODING 242
SWIDTH 360 0
DWIDTH 9 0
BBX 9 25 0 -5
BITMAP
0000
0000
0000
0000
0000
0000
0000
0000
1E00
3F00
6300
6300
6300
6300
6300
6300
6300
7E00
7E00
7C00
6000
6000
6000
6000
0000
ENDCHAR

STARTCHAR sigma
ENCODING 243
SWIDTH 360 0
DWIDTH 9 0
BBX 9 25 0 -5
BITMAP
0000
0000
0000
0000
0000
0000
0000
0000
1F80
3F80
6300
6300
6300
6300
6300
6300
6300
7E00
7E00
3C00
0000
0000
0000
0000
0000
ENDCHAR

STARTCHAR tau
ENCODING 244
SWIDTH 360 0
DWIDTH 9 0
BBX 9 25 0 -5
BITMAP
0000
0000
0000
0000
0000
0000
0000
0000
7F00
7F00
1C00
1C00
1C00
1800
1800
3800
3B00
3B00
3F00
1E00
0000
0000
0000
0000
0000
ENDCHAR

STARTCHAR florin
ENCODING 246
SWIDTH 360 0
DWIDTH 9 0
BBX 9 25 0 -5
BITMAP
0000
0000
0000
0000
0700
0F00
0F00
1C00
1C00
7F00
7F00
7F00
1C00
1C00
1C00
1C00
1800
1800
3800
3800
3800
F000
F000
E000
0000
ENDCHAR

STARTCHAR omega
ENCODING 247
SWIDTH 360 0
DWIDTH 9 0
BBX 9 25 0 -5
BITMAP
0000
0000
0000
0000
0000
0000
0000
0000
4980
4980
4980
C980
C980
D980
D980
DB00
DB00
FF00
FF00
6600
0000
0000
0000
0000
0000
ENDCHAR

STARTCHAR xi
ENCODING 248
SWIDTH 360 0
DWIDTH 9 0
BBX 9 25 0 -5
BITMAP
0000
0000
0000
7F00
7F00
7F00
0C00
1C00
1800
1800
3800
3E00
3E00
7000
7000
6000
6000
7E00
3F00
1F00
0300
0300
0300
0E00
0000
ENDCHAR

STARTCHAR upsilon
ENCODING 249
SWIDTH 360 0
DWIDTH 9 0
BBX 9 25 0 -5
BITMAP
0000
0000
0000
0000
0000
0000
0000
0000
6300
6300
6300
6300
6300
6300
6300
6300
6600
7E00
3C00
3800
0000
0000
0000
0000
0000
ENDCHAR

STARTCHAR zeta
ENCODING 250
SWIDTH 360 0
DWIDTH 9 0
BBX 9 25 0 -5
BITMAP
0000
0000
0000
7F00
7F00
7F00
0600
0E00
0C00
1C00
3800
3800
3000
7000
7000
7000
7000
7E00
3F00
1F00
0300
0300
0300
0E00
0000
ENDCHAR

STARTCHAR arrowleft
ENCODING 251
SWIDTH 360 0
DWIDTH 9 0
BBX 9 25 0 -5
BITMAP
0000
0000
0000
0000
0000
0000
0000
0000
0C00
0C00
1C00
3000
3000
7F80
7F80
3000
3000
1C00
0C00
0C00
0000
0000
0000
0000
0000
ENDCHAR

STARTCHAR arrowup
ENCODING 252
SWIDTH 360 0
DWIDTH 9 0
BBX 9 25 0 -5
BITMAP
0000
0000
0000
0000
0C00
0C00
1E00
1E00
3F00
2D00
2D00
0C00
0C00
0C00
0C00
0C00
0C00
0C00
0C00
0C00
0C00
0000
0000
0000
0000
ENDCHAR

STARTCHAR arrowright
ENCODING 253
SWIDTH 360 0
DWIDTH 9 0
BBX 9 25 0 -5
BITMAP
0000
0000
0000
0000
0000
0000
0000
0000
1800
1800
1C00
0600
0600
FF00
FF00
0600
0600
1C00
1800
1800
0000
0000
0000
0000
0000
ENDCHAR

STARTCHAR arrowdown
ENCODING 254
SWIDTH 360 0
DWIDTH 9 0
BBX 9 25 0 -5
BITMAP
0000
0000
0000
0000
0C00
0C00
0C00
0C00
0C00
0C00
0C00
0C00
0C00
0C00
2D00
2D00
3F00
1E00
1E00
0C00
0C00
0000
0000
0000
0000
ENDCHAR
ENDFONT
